<svg width="500" height="50" viewBox="0 0 500 50" fill="none" xmlns="http://www.w3.org/2000/svg">
<path d="M58.2726 42.8674V6.91972H73.7302C82.7684 6.91972 88.6228 11.5416 88.6228 19.5014V19.6041C88.6228 28.1289 82.1008 32.5967 73.2166 32.5967H68.2353V42.8674H58.2726ZM68.2353 24.7909H73.0112C76.5033 24.7909 78.7115 22.9421 78.7115 20.0663V19.9636C78.7115 16.8824 76.5033 15.2904 72.9599 15.2904H68.2353V24.7909ZM90.4919 42.8674V6.91972H100.455V34.1373H117.864V42.8674H90.4919ZM117.028 42.8674L132.28 6.66295H141.883L157.187 42.8674H146.505L143.938 36.3968H130.021L127.453 42.8674H117.028ZM132.948 28.6424H141.01L137.005 18.4743L132.948 28.6424ZM158.597 42.8674V6.91972H168.56V42.8674H158.597ZM172.807 42.8674V6.91972H182.102L196.892 25.9207V6.91972H206.752V42.8674H198.073L182.667 23.1475V42.8674H172.807ZM223.855 42.8674V6.91972H239.313C248.351 6.91972 254.205 11.5416 254.205 19.5014V19.6041C254.205 28.1289 247.683 32.5967 238.799 32.5967H233.818V42.8674H223.855ZM233.818 24.7909H238.594C242.086 24.7909 244.294 22.9421 244.294 20.0663V19.9636C244.294 16.8824 242.086 15.2904 238.542 15.2904H233.818V24.7909ZM256.074 42.8674V6.91972H273.073C278.619 6.91972 282.368 8.35763 284.781 10.7713C286.887 12.8768 287.965 15.7012 287.965 19.1419V19.2446C287.965 24.7909 285.089 28.437 280.57 30.3371L289.146 42.8674H277.694L270.454 31.9804H266.037V42.8674H256.074ZM266.037 24.1746H272.662C276 24.1746 278.003 22.5313 278.003 19.9122V19.8095C278.003 16.9337 275.897 15.4958 272.61 15.4958H266.037V24.1746ZM308.779 43.5864C297.686 43.5864 289.47 35.2671 289.47 24.9963V24.8936C289.47 14.5714 297.789 6.20076 308.881 6.20076C319.974 6.20076 328.19 14.5201 328.19 24.7909V24.8936C328.19 35.2157 319.871 43.5864 308.779 43.5864ZM308.881 34.5995C314.325 34.5995 317.971 30.183 317.971 24.9963V24.8936C317.971 19.6555 314.274 15.1877 308.779 15.1877C303.284 15.1877 299.638 19.6041 299.638 24.7909V24.8936C299.638 30.029 303.387 34.5995 308.881 34.5995ZM330.994 42.8674V6.91972H346.452C355.49 6.91972 361.344 11.5416 361.344 19.5014V19.6041C361.344 28.1289 354.823 32.5967 345.938 32.5967H340.957V42.8674H330.994ZM340.957 24.7909H345.733C349.225 24.7909 351.433 22.9421 351.433 20.0663V19.9636C351.433 16.8824 349.225 15.2904 345.682 15.2904H340.957V24.7909ZM363.214 42.8674V6.91972H373.176V20.3744H385.963V6.91972H395.926V42.8674H385.963V29.2073H373.176V42.8674H363.214ZM399.946 42.8674V6.91972H428.859V15.3418H409.806V20.8366H427.061V28.6938H409.806V34.394H429.115V42.8674H399.946ZM449.022 43.5864C438.751 43.5864 430.483 35.7292 430.483 24.9963V24.8936C430.483 14.4174 438.494 6.20076 449.381 6.20076C456.674 6.20076 461.501 9.282 464.633 13.6471L457.136 19.4501C455.082 16.9337 452.771 15.239 449.279 15.239C444.246 15.239 440.702 19.5528 440.702 24.7909V24.8936C440.702 30.2857 444.246 34.4968 449.279 34.4968C453.027 34.4968 455.184 32.7507 457.392 30.1317L464.89 35.4725C461.449 40.1457 456.93 43.5864 449.022 43.5864ZM476.314 42.8674V29.4127L462.603 6.91972H473.952L481.347 20.015L488.793 6.91972H499.937L486.277 29.2587V42.8674H476.314Z" fill="white"/>
<path d="M0 9.33715C0 4.95393 3.5533 1.40063 7.93651 1.40063H39.6825C44.0657 1.40063 47.619 4.95393 47.619 9.33714V41.0832C47.619 45.4664 44.0658 49.0197 39.6825 49.0197H7.93651C3.5533 49.0197 0 45.4664 0 41.0832V9.33715Z" fill="#C9A84C"/>
<path fill-rule="evenodd" clip-rule="evenodd" d="M22.2221 7.42769C15.9246 8.22675 10.7234 12.9214 9.34965 19.0464C8.9799 20.695 8.97432 20.7968 8.94317 26.4168C8.9273 29.2844 8.92382 31.7916 8.93543 31.9884L8.95649 32.3461L9.21055 31.8572C9.57407 31.1576 10.0791 30.3996 10.5844 29.7951L11.0223 29.2712V25.4563C11.0223 21.1997 11.0557 20.7078 11.4498 19.1644C12.5951 14.6776 16.0272 11.1353 20.4662 9.8585C22.9663 9.13933 25.9264 9.18504 28.3456 9.98009C30.4141 10.6599 31.9275 11.582 33.4178 13.0708C34.671 14.3228 35.4949 15.5745 36.1042 17.152C37.4918 20.745 36.9787 24.7661 34.758 27.7026C33.282 29.6545 31.0542 31.1191 28.6292 31.7321C27.4112 32.0399 27.065 32.0691 24.2223 32.1037L21.5185 32.1365L21.5006 30.9487L21.4827 29.7609L20.4907 29.7448L19.4987 29.7287L19.4634 31.7618C19.4333 33.4924 19.4075 33.8899 19.29 34.4339C19.1105 35.2652 18.8828 35.8967 18.5205 36.5676C17.1726 39.0645 14.6945 40.6237 11.8585 40.7592L11.0223 40.7992V38.3238C11.0223 36.1004 11.0358 35.7825 11.1545 35.1998C11.4781 33.6121 12.1928 32.2835 13.3301 31.1557C14.2857 30.2081 15.2652 29.6047 16.4984 29.2039C17.5203 28.8718 17.9485 28.8442 22.0779 28.8438C24.3613 28.8435 26.1737 28.8145 26.6031 28.7714C28.4413 28.5867 29.9065 27.9254 31.2382 26.6794C32.8486 25.1728 33.6694 23.3237 33.6694 21.203C33.6694 19.1395 32.854 17.1881 31.335 15.6167C29.9827 14.2176 28.3458 13.309 26.4472 12.9035C25.5271 12.7071 23.9373 12.6608 22.9765 12.8024C20.1377 13.2209 17.6021 14.8381 15.9746 17.2681C14.9056 18.8642 14.3609 20.5356 14.2326 22.6131C14.1469 24.0004 14.1528 26.9415 14.2412 26.9415C14.2803 26.9415 14.5238 26.8474 14.7823 26.7325C15.0409 26.6175 15.4737 26.4585 15.7442 26.3792L16.2361 26.2349L16.2731 24.1125C16.3132 21.8146 16.3502 21.5133 16.7348 20.3568C17.5337 17.9544 19.4876 15.9708 21.8444 15.1692C22.7655 14.8559 23.3099 14.7766 24.4995 14.7828C25.7086 14.7891 26.3013 14.8982 27.3244 15.3029C29.2931 16.0818 30.8301 17.723 31.3882 19.6424C32.1822 22.373 30.7644 25.2164 28.0409 26.3549C27.8606 26.4303 27.4769 26.5538 27.1883 26.6295C26.6891 26.7602 26.4432 26.769 22.1057 26.8112C17.0682 26.8602 17.2237 26.8476 15.777 27.3233C12.8155 28.2971 10.3968 30.7282 9.41923 33.7137C8.98187 35.0495 8.95649 35.3544 8.95649 39.271V42.7796L10.1698 42.7993C12.7772 42.8416 14.3433 42.5509 15.9738 41.7218C18.758 40.3061 20.6448 37.8672 21.269 34.8769L21.4265 34.1228L24.5369 34.0842L27.6474 34.0456L28.575 33.8436C31.1834 33.2756 33.2201 32.1887 35.1153 30.3535C38.1507 27.4141 39.448 23.4069 38.7571 19.1044C38.2861 16.1719 36.9236 13.5859 34.7431 11.4856C32.5805 9.4027 30.0022 8.09958 26.8932 7.51833C25.9805 7.34768 23.2676 7.29502 22.2221 7.42769ZM23.7453 18.313C21.748 18.7381 20.3064 20.0403 19.6747 21.99C19.5413 22.4018 19.522 22.6236 19.4878 24.1435C19.4668 25.0754 19.462 25.8501 19.477 25.865C19.492 25.88 19.9568 25.8922 20.5099 25.8922H21.5155L21.5165 24.5313C21.5175 22.9968 21.5837 22.578 21.927 21.9324C22.4527 20.9439 23.6118 20.2582 24.7653 20.2532C25.1606 20.2516 25.6666 19.9719 25.9332 19.6078C26.1742 19.2788 26.4054 18.6231 26.313 18.5308C26.0794 18.2971 24.4638 18.1601 23.7453 18.313ZM15.8346 30.4439C15.425 30.6346 14.6732 31.1268 14.3834 31.3939L14.1703 31.5904V34.447C14.1703 36.3281 14.1929 37.3035 14.2366 37.3035C14.273 37.3035 14.4427 37.2386 14.6137 37.1591C15.0292 36.9661 15.6791 36.3072 15.8943 35.8607C16.2429 35.1374 16.2689 34.9041 16.2689 32.5022C16.2689 31.2834 16.2468 30.2865 16.2197 30.2868C16.1926 30.2872 16.0193 30.3579 15.8346 30.4439Z" fill="black"/>
</svg>
